<svg width="105" height="118" fill="none" xmlns="http://www.w3.org/2000/svg"><g filter="url(#filter0_d)" fill="#83CFF4" fill-opacity=".9"><path d="M94.78 91.228c-.538-.29-13.288-7.063-25.58-3.189-5.87 1.85-10.437 5.75-13.637 9.38V84.724h5.37c4.148 0 7.52-3.38 7.52-7.535v-5.545H36.227v5.545c0 4.155 3.373 7.535 7.52 7.535h5.37v12.58c-3.195-3.597-7.727-7.435-13.536-9.266-12.292-3.874-25.042 2.899-25.579 3.19a3.232 3.232 0 0 0-1.348 4.293c.274.546 6.86 13.412 19.152 17.286 6.92 2.182 14.64 1.159 21.436-1.372 1.728 3.139 5.353 3.117 6.206-.034 6.77 2.539 14.544 3.607 21.528 1.406 12.292-3.874 18.877-16.74 19.151-17.286a3.233 3.233 0 0 0-1.348-4.294zM52.34 16.916a3.225 3.225 0 0 0 3.222-3.229V7.23A3.226 3.226 0 0 0 52.34 4a3.226 3.226 0 0 0-3.223 3.229v6.458a3.225 3.225 0 0 0 3.223 3.229zM22.715 27.319a3.218 3.218 0 0 0 4.558 0 3.234 3.234 0 0 0 0-4.566l-4.558-4.567a3.217 3.217 0 0 0-4.556 0 3.233 3.233 0 0 0 0 4.567l4.556 4.566zM16.89 52.435a3.225 3.225 0 0 0-3.222-3.229H7.223A3.225 3.225 0 0 0 4 52.435a3.226 3.226 0 0 0 3.223 3.23h6.445a3.226 3.226 0 0 0 3.223-3.23zM97.457 49.206h-6.445a3.225 3.225 0 0 0-3.223 3.229 3.226 3.226 0 0 0 3.223 3.23h6.445a3.226 3.226 0 0 0 3.223-3.23 3.226 3.226 0 0 0-3.223-3.229zM81.964 27.319l4.557-4.566a3.233 3.233 0 0 0 0-4.567 3.217 3.217 0 0 0-4.557 0l-4.558 4.567a3.234 3.234 0 0 0 0 4.566 3.218 3.218 0 0 0 4.558 0zM32.107 65.187h17.01V53.772l-5.5-5.512a3.234 3.234 0 0 1 0-4.567 3.218 3.218 0 0 1 4.556 0l4.167 4.175 4.167-4.174a3.217 3.217 0 0 1 4.557 0 3.233 3.233 0 0 1 0 4.566l-5.501 5.512v11.415h17.01C85.99 48.213 73.693 23.374 52.34 23.374c-21.406 0-33.612 24.888-20.233 41.813z"/></g><defs><filter id="filter0_d" x="0" y="0" width="104.68" height="118" filterUnits="userSpaceOnUse" color-interpolation-filters="sRGB"><feFlood flood-opacity="0" result="BackgroundImageFix"/><feColorMatrix in="SourceAlpha" values="0 0 0 0 0 0 0 0 0 0 0 0 0 0 0 0 0 0 127 0"/><feOffset/><feGaussianBlur stdDeviation="2"/><feColorMatrix values="0 0 0 0 0.513726 0 0 0 0 0.811765 0 0 0 0 0.956863 0 0 0 0.04 0"/><feBlend in2="BackgroundImageFix" result="effect1_dropShadow"/><feBlend in="SourceGraphic" in2="effect1_dropShadow" result="shape"/></filter></defs></svg>