<svg width="168" height="110" fill="none" xmlns="http://www.w3.org/2000/svg"><path d="M138.484 20.124C123.816 7.61 104.781 0 83.914 0 37.571 0 0 37.371 0 83.492c0 1.236.121 12.778.178 14.01V110H167.51V98.412l.159-.91c.051-1.237.182-12.774.182-14.01.005-40.926-29.368-63.368-29.368-63.368zM20.414 97.5c-.07-.762.027-11.844-.024-12.606h17.213v-5.529H21.6c0-.065-1.21.01-1.21.01.677-14.335 6.166-28.637 16.532-39.914l.434-.464.775.669 11.454 11.402 3.597-3.587-12.169-12.095C52.029 25.37 66.005 19.622 80.916 18.962l.864-.005s.36-.013.337.214v16.885h4.582V18.962c2.261.093 4.522.358 6.75.706 12.804 1.682 24.706 7.18 34.343 15.938l-12.145 12.09 3.377 3.373 11.664-11.607.645-.516.551.725c10.085 10.966 15.854 24.859 16.532 39.695H131.22v5.53l17.274-.024s.014 11.9-.046 12.587l-128.035.042zm86.09-39.894s-27.298 8.326-32.526 13.516a13.265 13.265 0 0 0 .01 18.85c5.218 5.21 13.696 5.21 18.937 0 5.222-5.213 13.579-32.366 13.579-32.366z" fill="#83CFF4" fill-opacity=".9"/></svg>