<svg width="130" height="130" fill="none" xmlns="http://www.w3.org/2000/svg"><g filter="url(#filter0_d)" fill="#83CFF4" fill-opacity=".9"><path d="M64.999 37.5c7.594 0 13.75-6.156 13.75-13.75S72.593 10 64.999 10s-13.75 6.156-13.75 13.75 6.156 13.75 13.75 13.75zM85.596 74.873l-3.121-24.31a6.849 6.849 0 0 0-6.834-6.188h-3.767c-.915 0-1.788.364-2.434 1.004l-4.441 4.441-4.441-4.441a3.462 3.462 0 0 0-2.434-1.004h-3.76c-3.548 0-6.49 2.66-6.834 6.098L44.402 74.88a3.428 3.428 0 0 0 .832 2.702 3.428 3.428 0 0 0 2.578 1.169h3.712l2.874 35.062a6.851 6.851 0 0 0 6.84 6.188h7.528c3.548 0 6.49-2.668 6.848-6.249L78.48 78.75h3.706c.99 0 1.925-.426 2.578-1.169.66-.735.963-1.725.832-2.709zM99.373 37.5c7.594 0 13.75-6.156 13.75-13.75S106.967 10 99.373 10s-13.75 6.156-13.75 13.75S91.78 37.5 99.374 37.5zM30.625 10c-7.583 0-13.75 6.167-13.75 13.75s6.167 13.75 13.75 13.75c7.576 0 13.75-6.167 13.75-13.75S38.2 10 30.624 10zM119.97 74.873l-3.121-24.304a6.844 6.844 0 0 0-6.834-6.194h-3.767c-.914 0-1.787.364-2.434 1.004l-4.44 4.441-4.442-4.441a3.458 3.458 0 0 0-2.427-1.004h-3.767c-.427 0-.811.151-1.217.227.887 1.567 1.581 3.266 1.787 5.17l3.115 24.227c.385 2.95-.537 5.92-2.517 8.154-.934 1.073-2.13 1.829-3.41 2.42l2.283 22.364a6.85 6.85 0 0 0 6.84 6.188h7.529c3.547 0 6.489-2.668 6.847-6.249l2.86-28.126h3.705c.99 0 1.925-.426 2.578-1.169.66-.735.963-1.725.832-2.709zM40.07 82.119a10.297 10.297 0 0 1-2.488-8.106L40.71 49.6c.179-1.829.852-3.479 1.712-5.005-.385-.069-.75-.22-1.155-.22h-3.768c-.914 0-1.787.364-2.433 1.004l-4.442 4.441-4.44-4.441a3.458 3.458 0 0 0-2.428-1.004H19.99c-3.548 0-6.49 2.66-6.834 6.098L10.027 74.88a3.428 3.428 0 0 0 .832 2.702 3.44 3.44 0 0 0 2.578 1.169h3.713l2.873 28.187a6.851 6.851 0 0 0 6.84 6.188h7.529c3.547 0 6.49-2.668 6.847-6.249l2.283-22.31c-1.286-.598-2.489-1.361-3.451-2.447z"/></g><defs><filter id="filter0_d" x="0" y="0" width="130" height="130" filterUnits="userSpaceOnUse" color-interpolation-filters="sRGB"><feFlood flood-opacity="0" result="BackgroundImageFix"/><feColorMatrix in="SourceAlpha" values="0 0 0 0 0 0 0 0 0 0 0 0 0 0 0 0 0 0 127 0"/><feOffset/><feGaussianBlur stdDeviation="5"/><feColorMatrix values="0 0 0 0 0.513726 0 0 0 0 0.811765 0 0 0 0 0.956863 0 0 0 0.2 0"/><feBlend in2="BackgroundImageFix" result="effect1_dropShadow"/><feBlend in="SourceGraphic" in2="effect1_dropShadow" result="shape"/></filter></defs></svg>