<svg width="131" height="130" fill="none" xmlns="http://www.w3.org/2000/svg"><g filter="url(#filter0_d)" fill="#83CFF4" fill-opacity=".9"><path d="M79.966 67.094l2.307 5.726H70.776a50.713 50.713 0 0 0 6.49-24.482l7.93-2.364v2.547c0 .42-.014.839-.022 1.26-3.537 1.247-5.903 4.567-5.915 8.295v5.365c0 1.25.239 2.491.707 3.653zm-28.41 13.59a7.8 7.8 0 0 0 2.177 5.392c-.735.53-1.455 1.08-2.213 1.572l-3.922 2.493-3.914-2.499a47.063 47.063 0 0 1-18.979-23.638l48.56-14.473a46.813 46.813 0 0 1-7.104 23.29h-6.69c-4.371 0-7.915 3.52-7.915 7.862zM11.074 60.507c-.015-.098-.033-.197-.049-.291l7.864-2.337c.233 1.18.516 2.359.833 3.51l-7.977 2.38a72.543 72.543 0 0 1-.67-3.262zm-.912-7.897l7.827-2.334a50.81 50.81 0 0 0 .289 3.673l-7.81 2.328c-.019-.177-.034-.353-.054-.53a69.23 69.23 0 0 1-.252-3.137zm63.16-22.929L21.874 45.015V30.958l25.793-9.151 25.657 7.281v.594zm0 4.105v3.759l-51.18 15.252a48.566 48.566 0 0 1-.233-3.688l51.414-15.323zm11.874 4.324v3.759l-7.916 2.36v-3.76l7.916-2.359zm0-4.104l-7.916 2.359v-3.759l7.916-2.36v3.76zm-62.5 22.73l32.2-9.595 18.427-5.492v3.759L23.512 60.254a46.369 46.369 0 0 1-.816-3.517zM10 21.206L47.598 10l37.598 11.206v4.937l-7.916 2.36v-.897c0-.877-.585-1.648-1.434-1.889l-27.704-7.863a1.964 1.964 0 0 0-1.209.037l-27.704 9.83a1.966 1.966 0 0 0-1.314 1.85v16.624L10 48.553V21.206zm37.598 88.725c-17.044-8.699-29.694-24.03-34.934-42.34l8.246-2.458A50.955 50.955 0 0 0 41.542 90.95l4.985 3.182a1.99 1.99 0 0 0 2.142 0l4.984-3.182.051-.033a7.75 7.75 0 0 0 3.667 8.299 7.813 7.813 0 0 0-1.858 5.058c.004.274.022.547.055.818a69.849 69.849 0 0 1-7.97 4.84zM98.454 120H65.407c-2.185 0-3.957-1.76-3.957-3.932-.004-2.041 1.58-3.738 3.629-3.89a2.011 2.011 0 0 0 1.81-2.084 1.972 1.972 0 0 0-1.978-1.889h-1.482c-2.186 0-3.958-1.76-3.958-3.932 0-2.171 1.772-3.931 3.958-3.931 1.092 0 1.978-.88 1.978-1.966a1.972 1.972 0 0 0-1.978-1.966h-1.98c-2.185 0-3.957-1.76-3.957-3.932 0-2.17 1.772-3.931 3.958-3.931 1.092 0 1.979-.88 1.979-1.966a1.973 1.973 0 0 0-1.98-1.966h-1.978c-2.186 0-3.958-1.76-3.958-3.932 0-2.17 1.772-3.931 3.958-3.931h25.725c.657 0 1.271-.324 1.64-.864.368-.54.443-1.228.198-1.834l-3.392-8.421a5.815 5.815 0 0 1-.425-2.192v-5.365c0-2.714 2.215-4.914 4.947-4.914 2.733 0 4.947 2.2 4.947 4.914v6.88c0 .251.047.499.14.732l3.958 9.83c.218.535.662.95 1.213 1.133l10.52 3.483v32.916L98.454 120zm22.361-7.863h-7.916V80.683h7.916v31.454zM110.169 31.223l-2.706 2.87c.904.84 1.753 1.735 2.543 2.682l3.044-2.515a33.729 33.729 0 0 0-2.881-3.037zM120.815 55.617c0-.77-.026-1.534-.079-2.29l-3.948.265c.045.669.068 1.344.069 2.025 0 .556-.015 1.11-.047 1.659l3.957.226c.032-.625.048-1.253.048-1.885zM106.933 28.567a33.834 33.834 0 0 0-3.548-2.24l-1.909 3.442a29.532 29.532 0 0 1 3.128 1.966l2.329-3.168zM120.269 61.642l-3.895-.703a28.92 28.92 0 0 1-.89 3.571l3.772 1.18a32.98 32.98 0 0 0 1.013-4.048zM99.582 24.543a33.356 33.356 0 0 0-4-1.293l-.989 3.807c1.198.307 2.376.688 3.526 1.14l1.463-3.654zM113.147 69.901l3.463 1.907c.396-.721.791-1.46 1.129-2.218l-3.593-1.643a24.959 24.959 0 0 1-.999 1.954zM112.197 39.747a29.855 29.855 0 0 1 1.797 3.216l3.573-1.686a33.092 33.092 0 0 0-2.038-3.649l-3.332 2.119zM115.373 46.377a29.2 29.2 0 0 1 .934 3.56l3.885-.748a32.992 32.992 0 0 0-1.061-4.042l-3.758 1.23zM95.062 43.474c4.809 1.892 7.96 6.516 7.943 11.654h3.958c.023-6.747-4.116-12.82-10.43-15.305l-.707-.28-1.472 3.648.708.283z"/></g><defs><filter id="filter0_d" x="0" y="0" width="130.815" height="130" filterUnits="userSpaceOnUse" color-interpolation-filters="sRGB"><feFlood flood-opacity="0" result="BackgroundImageFix"/><feColorMatrix in="SourceAlpha" values="0 0 0 0 0 0 0 0 0 0 0 0 0 0 0 0 0 0 127 0"/><feOffset/><feGaussianBlur stdDeviation="5"/><feColorMatrix values="0 0 0 0 0.513726 0 0 0 0 0.811765 0 0 0 0 0.956863 0 0 0 0.2 0"/><feBlend in2="BackgroundImageFix" result="effect1_dropShadow"/><feBlend in="SourceGraphic" in2="effect1_dropShadow" result="shape"/></filter></defs></svg>