<svg width="26" height="26" fill="none" xmlns="http://www.w3.org/2000/svg"><g opacity=".95"><path fill-rule="evenodd" clip-rule="evenodd" d="M13 12.514l4.582-4.582L13 3.35 8.418 7.932l1.006 1.006.867.867 2.71 2.709z" fill="#00B1EB"/><path fill-rule="evenodd" clip-rule="evenodd" d="M17.99 7.523l1.267-1.266-2.699-2.699L15.7 2.7 13 0 6.743 6.257 8.01 7.523 13 2.533l4.99 4.99z" fill="#00B1EB"/><path d="M19.257 19.743L13 26l-6.257-6.257L13 13.485l6.257 6.258zM12.514 12.999l-6.257 6.257L0 12.999l6.257-6.257L12.514 13zM26 13l-6.257 6.258L13.486 13l6.257-6.258L26 13.001z" fill="#83CFF4"/></g></svg>