<svg width="26" height="26" fill="none" xmlns="http://www.w3.org/2000/svg"><g opacity=".95"><path fill-rule="evenodd" clip-rule="evenodd" d="M13 13.486l-4.582 4.582L13 22.65l4.582-4.582-1.006-1.006-.867-.867-2.71-2.709z" fill="#00B1EB"/><path fill-rule="evenodd" clip-rule="evenodd" d="M8.01 18.477l-1.267 1.266 2.699 2.699.858.858L13 26l6.257-6.257-1.266-1.266L13 23.467l-4.99-4.99z" fill="#00B1EB"/><path d="M6.743 6.257L13 0l6.257 6.257L13 12.515 6.743 6.257zM13.486 13.001l6.257-6.257L26 13.001l-6.257 6.257L13.486 13zM0 13l6.257-6.258L12.514 13l-6.257 6.258L0 12.999z" fill="#83CFF4"/></g></svg>