<svg width="26" height="26" fill="none" xmlns="http://www.w3.org/2000/svg"><g opacity=".95"><path fill-rule="evenodd" clip-rule="evenodd" d="M12.514 13L7.932 8.418 3.348 13l4.582 4.582 1.006-1.006.868-.867 2.709-2.71z" fill="#00B1EB"/><path fill-rule="evenodd" clip-rule="evenodd" d="M7.523 8.01L6.257 6.742 3.558 9.442 2.7 10.3 0 13l6.257 6.257 1.266-1.266L2.533 13l4.99-4.99z" fill="#00B1EB"/><path d="M19.743 6.742L26 13l-6.257 6.257-6.258-6.257 6.258-6.257zM13 13.486l6.257 6.257L12.999 26l-6.257-6.257L13 13.486zM13 0l6.258 6.257L13 12.514 6.743 6.257 13 0z" fill="#83CFF4"/></g></svg>