<svg width="262" height="438" fill="none" xmlns="http://www.w3.org/2000/svg"><g opacity=".02"><path fill-rule="evenodd" clip-rule="evenodd" d="M240.959 128.737l27.791-8.284-8.305-27.792-27.792 8.285 1.823 6.1 1.572 5.26 4.911 16.431z" fill="#00B1EB"/><path fill-rule="evenodd" clip-rule="evenodd" d="M271.23 119.702l7.679-2.289-4.891-16.366-1.556-5.205-4.894-16.372-37.948 11.31 2.295 7.68 30.269-9.023 9.046 30.265z" fill="#00B1EB"/><path d="M250.227 170.524l-37.95 11.337-11.337-37.95 37.95-11.338 11.337 37.951zM238.01 129.628l-37.949 11.337-11.337-37.95 37.95-11.337 11.336 37.95zM291.125 158.308l-37.951 11.337-11.337-37.951 37.951-11.337 11.337 37.951zM197.867 294.205l-26.506 7.918-7.918-26.506 26.506-7.919 7.918 26.507zM189.334 265.64l-26.506 7.918-7.918-26.506 26.505-7.918 7.919 26.506zM226.431 285.671l-26.506 7.919-7.919-26.506 26.507-7.919 7.918 26.506zM217.898 257.108l-26.506 7.918-7.918-26.506 26.506-7.918 7.918 26.506zM123.276 218.924l-41.425 12.375-12.375-41.425 41.425-12.375 12.375 41.425zM109.94 174.281l-41.425 12.375-12.375-41.425 41.425-12.375 12.375 41.425zM167.919 205.587l-41.426 12.375-12.376-41.426 41.426-12.375 12.376 41.426zM154.583 160.945l-41.425 12.375-12.375-41.425 41.425-12.375 12.375 41.425z" fill="#83CFF4"/><path fill-rule="evenodd" clip-rule="evenodd" d="M151.651 356.184l14.487-4.317-4.33-14.487-14.486 4.317.95 3.18.819 2.742 2.56 8.565z" fill="#00B1EB"/><path fill-rule="evenodd" clip-rule="evenodd" d="M167.43 351.475l4.003-1.193-2.55-8.531-.811-2.713-2.551-8.534-19.781 5.894 1.196 4.003 15.779-4.702 4.715 15.776z" fill="#00B1EB"/><path d="M156.482 377.976l-19.78 5.9-5.912-19.792 19.781-5.9 5.911 19.792zM150.113 356.658l-19.78 5.9-5.911-19.793 19.78-5.9 5.911 19.793zM177.8 371.608l-19.781 5.9-5.911-19.792 19.78-5.901 5.912 19.793z" fill="#83CFF4"/></g></svg>