<svg width="149" height="248" fill="none" xmlns="http://www.w3.org/2000/svg"><g opacity=".02" fill="#83CFF4"><path d="M57.145 150.179l31.238-8.957 8.958 31.238-31.239 8.958-8.957-31.239zM66.798 183.845l31.239-8.958 8.957 31.239-31.238 8.957-8.958-31.238zM23.48 159.832l31.24-8.958 8.958 31.24-31.24 8.958-8.958-31.24zM33.133 193.497l31.24-8.958 8.957 31.239-31.239 8.957-8.958-31.238z"/></g><g opacity=".02"><path fill-rule="evenodd" clip-rule="evenodd" d="M111.075 77.461l-17.018 5.072 5.086 17.018 17.018-5.072-1.116-3.735-.963-3.221-3.007-10.062z" fill="#00B1EB"/><path fill-rule="evenodd" clip-rule="evenodd" d="M92.538 82.994l-4.702 1.4 2.995 10.022.953 3.188 2.997 10.025 23.238-6.924-1.406-4.702-18.535 5.523-5.54-18.532z" fill="#00B1EB"/><path d="M105.399 51.86l23.237-6.93 6.945 23.25-23.237 6.931-6.945-23.25zM112.881 76.905l23.237-6.931 6.944 23.25-23.236 6.931-6.945-23.25zM80.356 59.342l23.238-6.931 6.944 23.25-23.237 6.932-6.945-23.251z" fill="#83CFF4"/></g></svg>