<svg width="204" height="87" fill="none" xmlns="http://www.w3.org/2000/svg"><path fill-rule="evenodd" clip-rule="evenodd" d="M200.446 60.781c2.384 0 3.554-1.322 3.554-3.75V55.06c0-2.428-1.17-3.75-3.554-3.75h-1.128v-5.7h-2.383v15.171h3.511zM0 43.074L43.075 0 61.66 18.586V9.118h5.97v15.377h-.061l18.58 18.58-8.717 8.717-34.358-34.358L8.717 51.792 0 43.074zM24.425 67.5v9.38h-5.97V61.53l-6.925-6.924L43.075 23.06 74.62 54.605 43.075 86.149 24.425 67.5zm174.893-8.885v-5.137h1.128c.758 0 1.17.347 1.17 1.431v2.276c0 1.083-.412 1.43-1.17 1.43h-1.128zm-10.792-10.836h2.492V60.78h2.384V47.778h2.492V45.61h-7.368v2.168zm-3.013 7.347v2.167c0 1.084-.477 1.474-1.235 1.474-.759 0-1.236-.39-1.236-1.474V49.1c0-1.084.477-1.496 1.236-1.496.758 0 1.235.412 1.235 1.496v1.625h2.254v-1.473c0-2.428-1.214-3.815-3.554-3.815-2.341 0-3.555 1.387-3.555 3.815v7.888c0 2.428 1.214 3.815 3.555 3.815 2.34 0 3.554-1.387 3.554-3.815v-2.015h-2.254zM174.46 49.1c0-1.084.477-1.496 1.235-1.496.759 0 1.235.412 1.235 1.496v8.192c0 1.084-.476 1.495-1.235 1.495-.758 0-1.235-.411-1.235-1.495V49.1zm-2.384 8.04c0 2.428 1.279 3.815 3.619 3.815 2.341 0 3.62-1.387 3.62-3.815v-7.888c0-2.428-1.279-3.815-3.62-3.815-2.34 0-3.619 1.387-3.619 3.815v7.888zm-8.236-11.53h-3.316v15.171h2.081V50.053l1.777 10.728h2.254l1.647-10.88v10.88h2.254v-15.17h-3.316l-1.625 10.77-1.756-10.77zm-8.105 8.214l.975-3.727V60.78h2.145v-15.17h-2.622l-1.95 6.263-.867 3.337v-9.6h-2.124v15.17h2.449l1.994-6.957zm-10.663-8.214h-2.363v6.134l-2.817-6.134h-2.384l2.948 6.22-2.948 8.951h2.449l2.167-6.74.585 1.17v5.57h2.363v-5.57l.585-1.148 2.167 6.718h2.449l-2.926-9.015 2.926-6.156h-2.384l-2.817 6.134V45.61zm-11.682 8.214l.975-3.727V60.78h2.146v-15.17h-2.622l-1.951 6.263-.867 3.337v-9.6h-2.124v15.17h2.449l1.994-6.957zm-9.644-8.214h-3.598v15.171h3.749c2.385 0 3.62-1.257 3.62-3.597v-1.236c0-1.604-.499-2.752-1.777-3.25 1.062-.5 1.539-1.496 1.539-3.057V49.1c0-2.341-1.063-3.49-3.533-3.49zm-.152 8.344c1.084 0 1.539.434 1.539 1.842v1.323c0 1.126-.434 1.495-1.236 1.495h-1.365v-4.66h1.062zm.087-6.176c.845 0 1.213.477 1.213 1.56v.845c0 1.214-.542 1.604-1.43 1.604h-.932v-4.01h1.149zm-4.855 15.04v-4.16h-1.04V45.61h-6.675l-.542 11.075c-.044.889-.174 1.452-.585 1.972h-.932v4.162h2.319V60.78h5.093v2.038h2.362zm-5.483-15.04h2.016v10.88h-3.122c.391-.37.607-.868.673-2.016l.433-8.864zm-9.363 0h4.118V45.61h-6.502v15.171h6.502v-2.167h-4.118v-4.443h3.273v-2.167h-3.273v-4.226zm-9.254 6.501h2.71v6.502h2.426v-15.17h-2.427v6.501h-2.709V45.61h-2.384v15.171h2.384V54.28zm95.468-15.604c.131-.39.217-.628.217-1.864v-2.384c0-1.408.477-1.929 1.561-1.929h.823v6.177h2.384v-15.17h-3.597c-2.471 0-3.533 1.148-3.533 3.488v1.193c0 1.56.498 2.579 1.56 3.077-1.192.499-1.582 1.647-1.582 3.23v2.34c0 .737-.021 1.279-.26 1.842h2.427zm2.601-13.003v4.66h-.932c-.888 0-1.43-.391-1.43-1.605v-1.495c0-1.084.368-1.56 1.213-1.56h1.149zm-8.127-2.168h-3.49l-2.427 15.171h2.189l.412-2.752h2.926l.412 2.752h2.405l-2.427-15.17zm-1.864 2.688l1.149 7.672h-2.297l1.148-7.672zm-6.957 12.483h2.449l-3.316-8.409 3.316-6.762h-2.384l-3.121 6.61v-6.61h-2.384v15.171h2.384v-4.66l.737-1.386 2.319 6.046zm-9.146-5.656v2.167c0 1.084-.477 1.474-1.235 1.474-.759 0-1.235-.39-1.235-1.474v-8.193c0-1.083.476-1.495 1.235-1.495.758 0 1.235.412 1.235 1.495v1.626h2.254v-1.474c0-2.427-1.213-3.814-3.554-3.814-2.341 0-3.555 1.387-3.555 3.814v7.89c0 2.426 1.214 3.814 3.555 3.814s3.554-1.388 3.554-3.815V33.02h-2.254zm-10.251-7.347h4.118v-2.168h-6.502v15.171h6.502v-2.167h-4.118v-4.443h3.273v-2.167h-3.273v-4.226zm-6.523-2.168v6.155c0 1.02-.477 1.56-1.236 1.56s-1.387-.476-1.387-1.495v-6.22h-2.384v6.416c0 2.08 1.019 3.489 2.969 3.489.65 0 1.517-.282 2.038-.846v6.112h2.383v-15.17h-2.383zm-11.725 8.67h2.709v6.501h2.427v-15.17h-2.427v6.5h-2.709v-6.5h-2.385v15.17h2.385v-6.502zm-7.976-6.502h4.118v-2.168h-6.502v15.171h6.502v-2.167h-4.118v-4.443h3.273v-2.167h-3.273v-4.226zm-3.706 15.04v-4.16h-1.04V23.503h-6.676l-.541 11.075c-.044.889-.174 1.452-.585 1.972h-.932v4.161h2.319v-2.037h5.093v2.037h2.362zm-5.483-15.04h2.015v10.88h-3.12c.39-.37.606-.867.671-2.016l.434-8.864zm-4.768-2.168h-2.493l-1.083 5.202-.564 3.533-.737-3.555-1.3-5.18h-2.362l3.294 11.703-.021.13c-.196 1.106-.889 1.323-2.103 1.236v2.124c3.316.216 4.248-1.149 4.812-3.88l2.557-11.313zm-16.255 2.168h2.493v13.003h2.384V25.672h2.492v-2.168h-7.369v2.168zm-3.012 7.347v2.167c0 1.084-.477 1.474-1.236 1.474-.758 0-1.235-.39-1.235-1.474v-8.193c0-1.083.477-1.495 1.235-1.495.759 0 1.236.412 1.236 1.495v1.626h2.254v-1.474c0-2.427-1.214-3.814-3.555-3.814-2.34 0-3.554 1.387-3.554 3.814v7.89c0 2.426 1.214 3.814 3.554 3.814 2.341 0 3.555-1.388 3.555-3.815V33.02h-2.254z" fill="url(#paint0_linear)" fill-opacity=".95"/><defs><linearGradient id="paint0_linear" x1="-2.011" y1="16.357" x2="82.974" y2="31.468" gradientUnits="userSpaceOnUse"><stop offset=".099" stop-color="#284695"/><stop offset=".359" stop-color="#176DB7"/><stop offset=".665" stop-color="#00A0E3"/><stop offset="1" stop-color="#83CFF4"/></linearGradient></defs></svg>