<svg width="76" height="94" fill="none" xmlns="http://www.w3.org/2000/svg"><g filter="url(#filter0_d)"><path fill-rule="evenodd" clip-rule="evenodd" d="M37.99 84.714C31.154 79.36 7 58.772 7 34.816 7 17.946 20.618 5 37.99 5 55.375 5 69 17.952 69 34.816c0 23.926-24.176 44.549-31.01 49.898z" fill="#00B1EB"/></g><path fill-rule="evenodd" clip-rule="evenodd" d="M22 34.5L38.5 18l7.12 7.12v-3.627h2.287v5.89h-.024L55 34.5l-3.34 3.34L38.5 24.677 25.34 37.84 22 34.5zm9.356 9.356v3.593H29.07v-5.88l-2.652-2.652L38.5 26.833l12.083 12.084L38.5 51l-7.144-7.144z" fill="#fff" fill-opacity=".9"/><defs><filter id="filter0_d" x="0" y="0" width="76" height="93.714" filterUnits="userSpaceOnUse" color-interpolation-filters="sRGB"><feFlood flood-opacity="0" result="BackgroundImageFix"/><feColorMatrix in="SourceAlpha" values="0 0 0 0 0 0 0 0 0 0 0 0 0 0 0 0 0 0 127 0"/><feOffset dy="2"/><feGaussianBlur stdDeviation="3.5"/><feColorMatrix values="0 0 0 0 0.513726 0 0 0 0 0.811765 0 0 0 0 0.956863 0 0 0 0.25 0"/><feBlend in2="BackgroundImageFix" result="effect1_dropShadow"/><feBlend in="SourceGraphic" in2="effect1_dropShadow" result="shape"/></filter></defs></svg>