<svg width="22" height="21" fill="none" xmlns="http://www.w3.org/2000/svg"><path d="M11.166 5.479c-2.746 0-5.021 2.236-5.021 5.021a5.006 5.006 0 0 0 5.021 5.021c2.786 0 5.022-2.275 5.022-5.021s-2.275-5.021-5.022-5.021zm0 8.238A3.232 3.232 0 0 1 7.95 10.5a3.232 3.232 0 0 1 3.217-3.217 3.232 3.232 0 0 1 3.217 3.217 3.231 3.231 0 0 1-3.217 3.217zM16.642 6.392a1.37 1.37 0 1 0 0-2.74 1.37 1.37 0 0 0 0 2.74z" fill="#fff" fill-opacity=".75"/><path d="M19.973 1.736C18.873.593 17.306 0 15.527 0H6.806C3.122 0 .666 2.456.666 6.14v8.679c0 1.82.593 3.387 1.779 4.53C3.588 20.449 5.112 21 6.848 21h8.637c1.82 0 3.345-.593 4.446-1.651 1.143-1.101 1.735-2.668 1.735-4.488V6.139c0-1.778-.592-3.302-1.693-4.403zm-.17 13.125c0 1.312-.465 2.37-1.227 3.09-.762.72-1.82 1.101-3.09 1.101H6.847c-1.27 0-2.329-.38-3.09-1.1-.763-.763-1.144-1.821-1.144-3.134V6.14c0-1.27.381-2.329 1.143-3.09.72-.72 1.82-1.101 3.091-1.101h8.722c1.27 0 2.328.38 3.09 1.143.72.762 1.144 1.82 1.144 3.048v8.722z" fill="#fff" fill-opacity=".75"/></svg>