<svg width="26" height="18" fill="none" xmlns="http://www.w3.org/2000/svg"><path fill-rule="evenodd" clip-rule="evenodd" d="M13.705 17.315c.855 0 .855-1.386.855-1.924 0-.962.854-1.924 1.708-1.924.855 0 2.32 1.65 3.418 2.886.854.962.854.962 1.709.962h2.563s1.709-.073 1.709-1.924c0-.6-.586-1.62-2.564-3.848-1.708-1.923-2.585-.93 0-4.81 1.575-2.362 2.72-4.502 2.524-5.12-.188-.59-4.567-1.528-5.087-.651-1.708 2.886-2.022 3.593-2.563 4.81-.854 1.924-.939 2.886-1.709 2.886-.776 0-.854-1.868-.854-2.886 0-3.18.41-5.43-.854-5.772h-2.564c-1.375 0-2.563.962-2.563.962s-1.06.931-.854.962c.255.038 1.709-.398 1.709.962V4.81s.007 3.848-.855 3.848c-.854 0-2.563-3.848-4.272-6.734C4.491.792 4.307.962 3.453.962c-.916 0-1.708.04-2.563.04-.855 0-.964.613-.855.922 1.709 4.81 2.937 7.83 6.183 11.636 2.978 3.49 4.967 3.676 6.633 3.755.427.02 0 0 .854 0z" fill="#fff" fill-opacity=".75"/></svg>