<svg width="130" height="130" viewBox="0 0 130 130" fill="none" xmlns="http://www.w3.org/2000/svg">
<g filter="url(#filter0_d)">
<path d="M64.9988 37.5C72.5925 37.5 78.7485 31.3439 78.7485 23.75C78.7485 16.1561 72.5925 10 64.9988 10C57.405 10 51.249 16.1561 51.249 23.75C51.249 31.3439 57.405 37.5 64.9988 37.5Z" fill="#83CFF4" fill-opacity="0.9"/>
<path d="M85.5959 74.8725L82.4747 50.5625C82.1241 47.0356 79.1816 44.375 75.6411 44.375H71.8737C70.9593 44.375 70.0862 44.7394 69.4399 45.3787L64.9988 49.82L60.5576 45.3787C59.9114 44.7394 59.0383 44.375 58.1239 44.375H54.3634C50.8159 44.375 47.8735 47.0356 47.5298 50.4731L44.4017 74.8794C44.2779 75.8556 44.5804 76.8456 45.2336 77.5812C45.8867 78.3237 46.8216 78.75 47.8116 78.75H51.5241L54.3977 113.812C54.7415 117.332 57.6908 120 61.2382 120H68.7662C72.3136 120 75.2561 117.332 75.6136 113.751L78.4804 78.75H82.1859C83.1759 78.75 84.1109 78.3237 84.764 77.5812C85.424 76.8456 85.7265 75.8556 85.5959 74.8725Z" fill="#83CFF4" fill-opacity="0.9"/>
<path d="M99.3733 37.5C106.967 37.5 113.123 31.3439 113.123 23.75C113.123 16.1561 106.967 10 99.3733 10C91.7795 10 85.6235 16.1561 85.6235 23.75C85.6235 31.3439 91.7795 37.5 99.3733 37.5Z" fill="#83CFF4" fill-opacity="0.9"/>
<path d="M30.6247 10C23.0418 10 16.875 16.1669 16.875 23.75C16.875 31.3331 23.0418 37.5 30.6247 37.5C38.2008 37.5 44.3745 31.3331 44.3745 23.75C44.3745 16.1669 38.2008 10 30.6247 10Z" fill="#83CFF4" fill-opacity="0.9"/>
<path d="M119.97 74.8725L116.849 50.5694C116.498 47.0356 113.563 44.375 110.015 44.375H106.248C105.334 44.375 104.461 44.7394 103.814 45.3787L99.3732 49.82L94.932 45.3787C94.2858 44.7394 93.4127 44.375 92.5052 44.375H88.7378C88.3115 44.375 87.9266 44.5262 87.5209 44.6019C88.4078 46.1694 89.1022 47.8675 89.3084 49.7719L92.4227 73.9994C92.8077 76.9487 91.8865 79.9187 89.9065 82.1531C88.9715 83.2256 87.7753 83.9819 86.4966 84.5731L88.779 106.937C89.1297 110.464 92.0721 113.125 95.6195 113.125H103.148C106.695 113.125 109.637 110.457 109.995 106.876L112.855 78.75H116.56C117.55 78.75 118.485 78.3237 119.138 77.5812C119.798 76.8456 120.101 75.8556 119.97 74.8725Z" fill="#83CFF4" fill-opacity="0.9"/>
<path d="M40.0706 82.1187C38.1181 79.9119 37.2106 76.9487 37.5819 74.0131L40.7099 49.6C40.8887 47.7712 41.5624 46.1213 42.4218 44.595C42.0368 44.5263 41.6724 44.375 41.2668 44.375H37.4994C36.585 44.375 35.7119 44.7394 35.0657 45.3787L30.6245 49.82L26.1833 45.3787C25.5371 44.7394 24.664 44.375 23.7565 44.375H19.9889C16.4414 44.375 13.499 47.0356 13.1552 50.4731L10.0272 74.8794C9.90343 75.8556 10.2059 76.8456 10.859 77.5812C11.5122 78.3237 12.454 78.75 13.4371 78.75H17.1495L20.0232 106.937C20.367 110.457 23.3163 113.125 26.8637 113.125H34.3917C37.9391 113.125 40.8816 110.457 41.2391 106.876L43.5215 84.5662C42.2361 83.9681 41.033 83.205 40.0706 82.1187Z" fill="#83CFF4" fill-opacity="0.9"/>
</g>
<defs>
<filter id="filter0_d" x="0" y="0" width="130" height="130" filterUnits="userSpaceOnUse" color-interpolation-filters="sRGB">
<feFlood flood-opacity="0" result="BackgroundImageFix"/>
<feColorMatrix in="SourceAlpha" type="matrix" values="0 0 0 0 0 0 0 0 0 0 0 0 0 0 0 0 0 0 127 0"/>
<feOffset/>
<feGaussianBlur stdDeviation="5"/>
<feColorMatrix type="matrix" values="0 0 0 0 0.513726 0 0 0 0 0.811765 0 0 0 0 0.956863 0 0 0 0.2 0"/>
<feBlend mode="normal" in2="BackgroundImageFix" result="effect1_dropShadow"/>
<feBlend mode="normal" in="SourceGraphic" in2="effect1_dropShadow" result="shape"/>
</filter>
</defs>
</svg>
