<svg width="168" height="110" viewBox="0 0 168 110" fill="none" xmlns="http://www.w3.org/2000/svg">
<path d="M138.484 20.1238C123.816 7.61088 104.781 0 83.9143 0C37.5708 0 0 37.3714 0 83.492C0 84.728 0.121452 96.2698 0.177507 97.5011V110H167.511V98.4118L167.67 97.5011C167.721 96.2651 167.852 84.728 167.852 83.492C167.857 42.5661 138.484 20.1238 138.484 20.1238ZM20.4133 97.5011C20.3433 96.739 20.4414 85.6573 20.39 84.8952H37.6035V79.366H21.5998C21.5998 79.3009 20.39 79.3753 20.39 79.3753C21.0673 65.041 26.556 50.7392 36.9215 39.4623L37.356 38.9976L38.1314 39.6667L49.5853 51.0691L53.1821 47.4821L41.0135 35.3873C52.0283 25.3696 66.0047 19.622 80.9153 18.9622L81.7795 18.9575C81.7795 18.9575 82.1392 18.9436 82.1158 19.1712V36.0564H86.6983V18.9622C88.9592 19.0551 91.2201 19.3199 93.4483 19.6684C106.252 21.3504 118.154 26.8472 127.791 35.6057L115.646 47.6958L119.023 51.0691L130.687 39.4623L131.332 38.9465L131.883 39.6714C141.968 50.637 147.737 64.5299 148.415 79.366H131.22V84.8952L148.494 84.872C148.494 84.872 148.508 96.7716 148.448 97.4592L20.4133 97.5011ZM106.504 57.6067C106.504 57.6067 79.2056 65.9331 73.9785 71.1232C68.7421 76.3365 68.7421 84.7605 73.9879 89.9738C79.2056 95.1825 87.684 95.1825 92.9251 89.9738C98.1475 84.7605 106.504 57.6067 106.504 57.6067Z" fill="#83CFF4" fill-opacity="0.9"/>
</svg>
