<svg width="105" height="118" viewBox="0 0 105 118" fill="none" xmlns="http://www.w3.org/2000/svg">
<g filter="url(#filter0_d)">
<path d="M94.7793 91.2283C94.2422 90.9388 81.4917 84.1653 69.2003 88.0392C63.3307 89.8889 58.7635 93.7888 55.5627 97.4185V84.7251H60.9338C65.0805 84.7251 68.4533 81.3446 68.4533 77.1904V71.6448H36.2268V77.1904C36.2268 81.3446 39.5996 84.7251 43.7463 84.7251H49.1174V97.3052C45.9216 93.7082 41.3897 89.8696 35.5805 88.0392C23.2891 84.1653 10.5386 90.9379 10.0024 91.2283C8.46658 92.0583 7.86988 93.9617 8.65373 95.5218C8.92816 96.0682 15.5136 108.934 27.8059 112.808C34.7262 114.99 42.4463 113.967 49.2416 111.436C50.97 114.575 54.5951 114.553 55.4477 111.402C62.2187 113.941 69.9917 115.009 76.9758 112.808C89.268 108.934 95.8526 96.0682 96.1271 95.5218C96.9109 93.9617 96.3142 92.0583 94.7793 91.2283Z" fill="#83CFF4" fill-opacity="0.9"/>
<path d="M52.3398 16.9158C54.1199 16.9158 55.5625 15.4707 55.5625 13.6873V7.22853C55.5625 5.446 54.1199 4 52.3398 4C50.5598 4 49.1172 5.446 49.1172 7.22853V13.6873C49.1172 15.4707 50.5598 16.9158 52.3398 16.9158Z" fill="#83CFF4" fill-opacity="0.9"/>
<path d="M22.7155 27.319C23.9744 28.5803 26.0146 28.5803 27.2734 27.319C28.5314 26.0584 28.5314 24.0132 27.2734 22.7527L22.7155 18.1864C21.4575 16.925 19.4165 16.925 18.1585 18.1864C16.8996 19.4469 16.8996 21.4913 18.1585 22.7527L22.7155 27.319Z" fill="#83CFF4" fill-opacity="0.9"/>
<path d="M16.8906 52.4347C16.8906 50.6514 15.448 49.2062 13.668 49.2062H7.22266C5.44264 49.2062 4 50.6514 4 52.4347C4 54.2181 5.44264 55.6641 7.22266 55.6641H13.668C15.448 55.6641 16.8906 54.2181 16.8906 52.4347Z" fill="#83CFF4" fill-opacity="0.9"/>
<path d="M97.457 49.2062H91.0117C89.2317 49.2062 87.7891 50.6514 87.7891 52.4347C87.7891 54.2181 89.2317 55.6641 91.0117 55.6641H97.457C99.2371 55.6641 100.68 54.2181 100.68 52.4347C100.68 50.6514 99.2371 49.2062 97.457 49.2062Z" fill="#83CFF4" fill-opacity="0.9"/>
<path d="M81.9643 27.319L86.5213 22.7527C87.7802 21.4913 87.7802 19.4469 86.5213 18.1864C85.2633 16.925 83.2223 16.925 81.9643 18.1864L77.4064 22.7527C76.1484 24.0132 76.1484 26.0584 77.4064 27.319C78.6653 28.5803 80.7054 28.5803 81.9643 27.319Z" fill="#83CFF4" fill-opacity="0.9"/>
<path d="M32.1069 65.1869H49.1173V53.7724L43.6161 48.2604C42.3573 46.999 42.3573 44.9546 43.6161 43.6933C44.8741 42.4327 46.9152 42.4327 48.1732 43.6933L52.34 47.8684L56.5068 43.6941C57.7648 42.4327 59.8058 42.4327 61.0638 43.6941C62.3227 44.9546 62.3227 46.999 61.0638 48.2604L55.5626 53.7724V65.1869H72.5739C85.9899 48.2134 73.6918 23.3737 52.34 23.3737C30.9345 23.3737 18.7278 48.262 32.1069 65.1869Z" fill="#83CFF4" fill-opacity="0.9"/>
</g>
<defs>
<filter id="filter0_d" x="0" y="0" width="104.68" height="118" filterUnits="userSpaceOnUse" color-interpolation-filters="sRGB">
<feFlood flood-opacity="0" result="BackgroundImageFix"/>
<feColorMatrix in="SourceAlpha" type="matrix" values="0 0 0 0 0 0 0 0 0 0 0 0 0 0 0 0 0 0 127 0"/>
<feOffset/>
<feGaussianBlur stdDeviation="2"/>
<feColorMatrix type="matrix" values="0 0 0 0 0.513726 0 0 0 0 0.811765 0 0 0 0 0.956863 0 0 0 0.04 0"/>
<feBlend mode="normal" in2="BackgroundImageFix" result="effect1_dropShadow"/>
<feBlend mode="normal" in="SourceGraphic" in2="effect1_dropShadow" result="shape"/>
</filter>
</defs>
</svg>
