<svg width="131" height="130" viewBox="0 0 131 130" fill="none" xmlns="http://www.w3.org/2000/svg">
<g filter="url(#filter0_d)">
<path d="M79.9656 67.0935L82.2729 72.8201H70.7758C74.9779 65.3312 77.2099 56.9111 77.2669 48.3375L85.1958 45.9743V48.5208C85.1958 48.9413 85.1822 49.3598 85.1735 49.7802C81.6371 51.028 79.2708 54.3482 79.2592 58.0764V63.4412C79.2583 64.6919 79.4979 65.932 79.9656 67.0935ZM51.5555 80.6834C51.5575 82.6915 52.3372 84.6218 53.7325 86.076C52.9981 86.6068 52.2783 87.1568 51.5198 87.6483L47.5979 90.1411L43.6837 87.6425C34.9094 82.0541 28.2376 73.7445 24.705 64.0037L73.2657 49.5306C72.9952 57.7788 70.5448 65.8101 66.1611 72.8201H59.4709C55.0997 72.8201 51.5555 76.341 51.5555 80.6834ZM11.0744 60.5078C11.059 60.4099 11.0406 60.311 11.0252 60.2169L18.8893 57.8796C19.1222 59.0593 19.4053 60.239 19.7222 61.3909L11.745 63.7694C11.4841 62.6406 11.2687 61.5656 11.0744 60.5078ZM10.1623 52.6109L17.9888 50.2774C18.0439 51.5108 18.1347 52.7347 18.2777 53.9499L10.4686 56.2776C10.4493 56.101 10.4338 55.9253 10.4135 55.7487C10.3131 54.7341 10.2213 53.7061 10.1623 52.6109ZM73.3227 29.6823L21.873 45.0154V30.958L47.6655 21.8065L73.3227 29.0881V29.6823ZM73.3227 33.7867V37.5456L22.1426 52.798C22.0179 51.5771 21.9406 50.3475 21.9088 49.1102L73.3227 33.7867ZM85.1958 38.111V41.8698L77.2804 44.2292V40.4703L85.1958 38.111ZM85.1958 34.0065L77.2804 36.3659V32.607L85.1958 30.2476V34.0065ZM22.6962 56.7374L54.8958 47.1424L73.3227 41.65V45.4089L23.5117 60.2544C23.1987 59.0948 22.9194 57.9247 22.6962 56.7374ZM10 21.2056L47.5979 10L85.1958 21.2056V26.1432L77.2804 28.5026V27.6061C77.2804 26.7287 76.6949 25.958 75.8456 25.717L48.1419 17.8537C47.7447 17.7385 47.3215 17.752 46.9331 17.8911L19.2294 27.7203C18.441 27.9996 17.9153 28.7406 17.9153 29.5719V46.195L10 48.5535L10 21.2056ZM47.5979 109.931C30.5536 101.232 17.9037 85.9013 12.6639 67.5907L20.9097 65.1334C24.7137 75.7746 31.973 84.856 41.5425 90.9493L46.5273 94.1313C47.1795 94.5479 48.0163 94.5479 48.6685 94.1313L53.6532 90.9493L53.7044 90.9157C53.0078 94.1774 54.4832 97.5168 57.3713 99.2148C56.1703 100.631 55.5123 102.422 55.5132 104.273C55.5171 104.547 55.5354 104.82 55.5683 105.091C53.0233 106.879 50.3603 108.497 47.5979 109.931ZM98.4543 120H65.4074C63.2218 120 61.4497 118.24 61.4497 116.068C61.4459 114.027 63.0295 112.33 65.0789 112.178C66.1427 112.069 66.936 111.155 66.8896 110.094C66.848 109.038 65.9746 108.204 64.9108 108.205H63.4286C61.243 108.205 59.4709 106.445 59.4709 104.273C59.4709 102.102 61.243 100.342 63.4286 100.342C64.5214 100.342 65.4074 99.4615 65.4074 98.3759C65.4074 97.2903 64.5214 96.4101 63.4286 96.4101H61.4497C59.2641 96.4101 57.4921 94.6496 57.4921 92.4784C57.4921 90.3072 59.2641 88.5467 61.4497 88.5467C62.5425 88.5467 63.4286 87.6665 63.4286 86.5809C63.4286 85.4953 62.5425 84.6151 61.4497 84.6151H59.4709C57.2853 84.6151 55.5132 82.8547 55.5132 80.6834C55.5132 78.5122 57.2853 76.7518 59.4709 76.7518H85.1958C85.8528 76.7518 86.4673 76.4283 86.8354 75.8879C87.2045 75.3475 87.2789 74.6602 87.0345 74.0545L83.6421 65.6326C83.3599 64.9366 83.216 64.1918 83.2169 63.4412V58.0764C83.2169 55.3619 85.4315 53.1618 88.164 53.1618C90.8965 53.1618 93.1111 55.3619 93.1111 58.0764V64.9568C93.1111 65.2073 93.1584 65.455 93.2512 65.6882L97.2089 75.5174C97.4272 76.053 97.8707 76.4677 98.4225 76.651L108.942 80.1344V113.05L98.4543 120ZM120.815 112.137H112.899V80.6834H120.815V112.137Z" fill="#83CFF4" fill-opacity="0.9"/>
<path d="M110.169 31.2229L107.463 34.0929C108.367 34.9328 109.216 35.8284 110.006 36.7748L113.05 34.2599C112.154 33.1897 111.192 32.1751 110.169 31.2229Z" fill="#83CFF4" fill-opacity="0.9"/>
<path d="M120.815 55.6172C120.815 54.8464 120.789 54.0833 120.736 53.3269L116.788 53.5919C116.833 54.2609 116.856 54.9357 116.857 55.6172C116.857 56.173 116.842 56.7278 116.81 57.2759L120.767 57.5024C120.799 56.8775 120.815 56.2488 120.815 55.6172Z" fill="#83CFF4" fill-opacity="0.9"/>
<path d="M106.933 28.5669C105.798 27.7481 104.614 26.9994 103.385 26.3266L101.476 29.7687C102.559 30.358 103.603 31.0146 104.604 31.7345L106.933 28.5669Z" fill="#83CFF4" fill-opacity="0.9"/>
<path d="M120.269 61.6423L116.374 60.9388C116.154 62.1463 115.856 63.3394 115.484 64.5104L119.256 65.6901C119.679 64.3636 120.017 63.0111 120.269 61.6423Z" fill="#83CFF4" fill-opacity="0.9"/>
<path d="M99.5819 24.5431C98.2775 24.0286 96.9422 23.5967 95.5827 23.2501L94.5933 27.057C95.7914 27.3642 96.9692 27.7452 98.119 28.1974L99.5819 24.5431Z" fill="#83CFF4" fill-opacity="0.9"/>
<path d="M113.147 69.9011L116.61 71.8075C117.006 71.0866 117.401 70.3475 117.739 69.5901L114.146 67.9468C113.843 68.6111 113.509 69.2628 113.147 69.9011Z" fill="#83CFF4" fill-opacity="0.9"/>
<path d="M112.197 39.7466C112.862 40.7813 113.462 41.8554 113.994 42.9631L117.567 41.2766C116.965 40.0192 116.285 38.8002 115.529 37.6282L112.197 39.7466Z" fill="#83CFF4" fill-opacity="0.9"/>
<path d="M115.373 46.3774C115.759 47.5437 116.071 48.733 116.307 49.9376L120.192 49.1889C119.924 47.8211 119.57 46.4705 119.131 45.1469L115.373 46.3774Z" fill="#83CFF4" fill-opacity="0.9"/>
<path d="M95.0618 43.4738C99.8707 45.3657 103.022 49.9904 103.005 55.1277H106.963C106.986 48.3807 102.847 42.3076 96.5324 39.8234L95.826 39.5421L94.3535 43.1906L95.0618 43.4738Z" fill="#83CFF4" fill-opacity="0.9"/>
</g>
<defs>
<filter id="filter0_d" x="0" y="0" width="130.815" height="130" filterUnits="userSpaceOnUse" color-interpolation-filters="sRGB">
<feFlood flood-opacity="0" result="BackgroundImageFix"/>
<feColorMatrix in="SourceAlpha" type="matrix" values="0 0 0 0 0 0 0 0 0 0 0 0 0 0 0 0 0 0 127 0"/>
<feOffset/>
<feGaussianBlur stdDeviation="5"/>
<feColorMatrix type="matrix" values="0 0 0 0 0.513726 0 0 0 0 0.811765 0 0 0 0 0.956863 0 0 0 0.2 0"/>
<feBlend mode="normal" in2="BackgroundImageFix" result="effect1_dropShadow"/>
<feBlend mode="normal" in="SourceGraphic" in2="effect1_dropShadow" result="shape"/>
</filter>
</defs>
</svg>
