<svg width="26" height="26" viewBox="0 0 26 26" fill="none" xmlns="http://www.w3.org/2000/svg">
<g opacity="0.95">
<path fill-rule="evenodd" clip-rule="evenodd" d="M13.0001 12.5139L17.5822 7.93174L13.0001 3.34961L8.41797 7.93174L9.42372 8.93753L10.2911 9.80483L13.0001 12.5139Z" fill="#00B1EB"/>
<path fill-rule="evenodd" clip-rule="evenodd" d="M17.9909 7.52318L19.2571 6.25695L16.5582 3.55812L15.6999 2.69975L13.0001 0L6.74316 6.25695L8.00932 7.52314L13.0001 2.53238L17.9909 7.52318Z" fill="#00B1EB"/>
<path d="M19.2573 19.7427L13.0002 26L6.74323 19.7427L13.0002 13.4854L19.2573 19.7427Z" fill="#83CFF4"/>
<path d="M12.5143 12.999L6.25708 19.2559L-0.000129052 12.999L6.25708 6.74217L12.5143 12.999Z" fill="#83CFF4"/>
<path d="M25.9997 13.0005L19.7427 19.2578L13.4857 13.0005L19.7427 6.74317L25.9997 13.0005Z" fill="#83CFF4"/>
</g>
</svg>
