<svg width="26" height="26" viewBox="0 0 26 26" fill="none" xmlns="http://www.w3.org/2000/svg">
<g opacity="0.95">
<path fill-rule="evenodd" clip-rule="evenodd" d="M12.5137 12.9999L7.9315 8.41778L3.34937 12.9999L7.9315 17.582L8.93728 16.5763L9.80459 15.7089L12.5137 12.9999Z" fill="#00B1EB"/>
<path fill-rule="evenodd" clip-rule="evenodd" d="M7.52318 8.00912L6.25695 6.7429L3.55812 9.44176L2.69975 10.3001L8.68158e-07 12.9999L6.25695 19.2568L7.52314 17.9907L2.53238 12.9999L7.52318 8.00912Z" fill="#00B1EB"/>
<path d="M19.7426 6.74213L26 12.999L19.7426 19.2559L13.4851 12.999L19.7426 6.74213Z" fill="#83CFF4"/>
<path d="M12.9994 13.4863L19.2566 19.7432L12.9994 26L6.74217 19.7432L12.9994 13.4863Z" fill="#83CFF4"/>
<path d="M13.0001 -4.64572e-06L19.2576 6.25684L13.0001 12.5137L6.74258 6.25683L13.0001 -4.64572e-06Z" fill="#83CFF4"/>
</g>
</svg>
