<svg width="26" height="26" viewBox="0 0 26 26" fill="none" xmlns="http://www.w3.org/2000/svg">
<g opacity="0.95">
<path fill-rule="evenodd" clip-rule="evenodd" d="M12.9999 13.4861L8.41778 18.0683L12.9999 22.6504L17.582 18.0683L16.5763 17.0625L15.7089 16.1952L12.9999 13.4861Z" fill="#00B1EB"/>
<path fill-rule="evenodd" clip-rule="evenodd" d="M8.00912 18.4768L6.7429 19.7431L9.44176 22.4419L10.3001 23.3002L12.9999 26L19.2568 19.743L17.9907 18.4769L12.9999 23.4676L8.00912 18.4768Z" fill="#00B1EB"/>
<path d="M6.74273 6.25731L12.9998 0L19.2568 6.25731L12.9998 12.5146L6.74273 6.25731Z" fill="#83CFF4"/>
<path d="M13.4857 13.001L19.7429 6.74414L26.0001 13.001L19.7429 19.2578L13.4857 13.001Z" fill="#83CFF4"/>
<path d="M0.000300836 12.9995L6.25732 6.74219L12.5143 12.9995L6.25732 19.2568L0.000300836 12.9995Z" fill="#83CFF4"/>
</g>
</svg>
