<svg width="149" height="248" viewBox="0 0 149 248" fill="none" xmlns="http://www.w3.org/2000/svg">
<g opacity="0.02">
<path d="M57.1447 150.179L88.3833 141.222L97.3408 172.46L66.1022 181.418L57.1447 150.179Z" fill="#83CFF4"/>
<path d="M66.798 183.845L98.0366 174.887L106.994 206.126L75.7556 215.083L66.798 183.845Z" fill="#83CFF4"/>
<path d="M23.4804 159.832L54.7197 150.874L63.6775 182.114L32.4382 191.072L23.4804 159.832Z" fill="#83CFF4"/>
<path d="M33.1335 193.497L64.3721 184.539L73.3296 215.778L42.091 224.735L33.1335 193.497Z" fill="#83CFF4"/>
</g>
<g opacity="0.02">
<path fill-rule="evenodd" clip-rule="evenodd" d="M111.075 77.461L94.0566 82.5325L99.1428 99.5509L116.161 94.4794L115.045 90.7439L114.082 87.5226L111.075 77.461Z" fill="#00B1EB"/>
<path fill-rule="evenodd" clip-rule="evenodd" d="M92.5383 82.9936L87.8356 84.3947L90.8314 94.4164L91.784 97.6038L94.7808 107.629L118.019 100.705L116.613 96.0034L98.078 101.526L92.5383 82.9936Z" fill="#00B1EB"/>
<path d="M105.399 51.8605L128.636 44.9294L135.581 68.1802L112.344 75.1113L105.399 51.8605Z" fill="#83CFF4"/>
<path d="M112.881 76.9046L136.118 69.9736L143.062 93.224L119.826 100.155L112.881 76.9046Z" fill="#83CFF4"/>
<path d="M80.3563 59.3418L103.594 52.4106L110.538 75.6615L87.3008 82.5927L80.3563 59.3418Z" fill="#83CFF4"/>
</g>
</svg>
