<svg width="262" height="438" viewBox="0 0 262 438" fill="none" xmlns="http://www.w3.org/2000/svg">
<g opacity="0.02">
<path fill-rule="evenodd" clip-rule="evenodd" d="M240.959 128.737L268.75 120.453L260.445 92.6611L232.653 100.946L234.476 107.046L236.048 112.306L240.959 128.737Z" fill="#00B1EB"/>
<path fill-rule="evenodd" clip-rule="evenodd" d="M271.23 119.702L278.909 117.413L274.018 101.047L272.462 95.8418L267.568 79.4699L229.62 90.7808L231.915 98.4591L262.184 89.4372L271.23 119.702Z" fill="#00B1EB"/>
<path d="M250.227 170.524L212.277 181.861L200.94 143.911L238.89 132.573L250.227 170.524Z" fill="#83CFF4"/>
<path d="M238.01 129.628L200.061 140.965L188.724 103.015L226.674 91.6778L238.01 129.628Z" fill="#83CFF4"/>
<path d="M291.125 158.308L253.174 169.645L241.837 131.694L279.788 120.357L291.125 158.308Z" fill="#83CFF4"/>
<path d="M197.867 294.205L171.361 302.123L163.443 275.617L189.949 267.698L197.867 294.205Z" fill="#83CFF4"/>
<path d="M189.334 265.64L162.828 273.558L154.91 247.052L181.415 239.134L189.334 265.64Z" fill="#83CFF4"/>
<path d="M226.431 285.671L199.925 293.59L192.006 267.084L218.513 259.165L226.431 285.671Z" fill="#83CFF4"/>
<path d="M217.898 257.108L191.392 265.026L183.474 238.52L209.98 230.602L217.898 257.108Z" fill="#83CFF4"/>
<path d="M123.276 218.924L81.8511 231.299L69.476 189.874L110.901 177.499L123.276 218.924Z" fill="#83CFF4"/>
<path d="M109.94 174.281L68.5146 186.656L56.1396 145.231L97.5646 132.856L109.94 174.281Z" fill="#83CFF4"/>
<path d="M167.919 205.587L126.493 217.962L114.117 176.536L155.543 164.161L167.919 205.587Z" fill="#83CFF4"/>
<path d="M154.583 160.945L113.158 173.32L100.783 131.895L142.208 119.52L154.583 160.945Z" fill="#83CFF4"/>
<path fill-rule="evenodd" clip-rule="evenodd" d="M151.651 356.184L166.138 351.867L161.808 337.38L147.322 341.697L148.272 344.877L149.091 347.619L151.651 356.184Z" fill="#00B1EB"/>
<path fill-rule="evenodd" clip-rule="evenodd" d="M167.43 351.475L171.433 350.282L168.883 341.751L168.072 339.038L165.521 330.504L145.74 336.398L146.936 340.401L162.715 335.699L167.43 351.475Z" fill="#00B1EB"/>
<path d="M156.482 377.976L136.702 383.876L130.79 364.084L150.571 358.184L156.482 377.976Z" fill="#83CFF4"/>
<path d="M150.113 356.658L130.333 362.558L124.422 342.765L144.202 336.865L150.113 356.658Z" fill="#83CFF4"/>
<path d="M177.8 371.608L158.019 377.508L152.108 357.716L171.888 351.815L177.8 371.608Z" fill="#83CFF4"/>
</g>
</svg>
