<svg width="22" height="27" viewBox="0 0 22 27" fill="none" xmlns="http://www.w3.org/2000/svg">
<path fill-rule="evenodd" clip-rule="evenodd" d="M18.5502 26.8027V21.7722V8.25223V3.22181H16.0355H2.51521H0V26.8027H2.51521H16.0356H18.5502ZM21.7716 23.4731L21.772 18.5507L21.7716 5.03055L21.772 1.5L21.7716 0H3.32891V1.79011H19.9819V3V8.25181V21.7721V23.4731H21.7716ZM2.83252 17.4253H15.7183V18.857H2.83252V17.4253ZM15.7183 14.2495H2.83252V15.6812H15.7183V14.2495ZM2.83252 11.0737H15.7183V12.5054H2.83252V11.0737ZM15.7183 20.7839H2.83252V22.2156H15.7183V20.7839ZM2.83252 7.89746H15.7183V9.32916H2.83252V7.89746Z" fill="#83CFF4" fill-opacity="0.8"/>
</svg>
