<svg width="204" height="87" viewBox="0 0 204 87" fill="none" xmlns="http://www.w3.org/2000/svg">
<path fill-rule="evenodd" clip-rule="evenodd" d="M200.446 60.7814C202.83 60.7814 204 59.4592 204 57.0319V55.0596C204 52.6324 202.83 51.3105 200.446 51.3105H199.318V45.6104H196.935V60.7814H200.446ZM0 43.0744L43.0748 0L61.6608 18.586V9.1183H67.6312V24.4948H67.57L86.1496 43.0744L77.4326 51.7917L43.0748 17.4338L8.71691 51.7917L0 43.0744ZM24.4251 67.4995V76.8797H18.4542V61.529L11.5298 54.6047L43.0748 23.0597L74.6197 54.6047L43.0748 86.1491L24.4251 67.4995ZM199.318 58.6141V53.4774H200.446C201.204 53.4774 201.616 53.8244 201.616 54.9081V57.1839C201.616 58.2671 201.204 58.6141 200.446 58.6141H199.318ZM188.526 47.7778H191.018V60.7814H193.402V47.7778H195.894V45.6104H188.526V47.7778ZM185.513 55.1249V57.2919C185.513 58.3755 185.036 58.7656 184.278 58.7656C183.519 58.7656 183.042 58.3755 183.042 57.2919V49.0996C183.042 48.016 183.519 47.6041 184.278 47.6041C185.036 47.6041 185.513 48.016 185.513 49.0996V50.7253H187.767V49.2516C187.767 46.8243 186.553 45.4372 184.213 45.4372C181.872 45.4372 180.658 46.8243 180.658 49.2516V57.1403C180.658 59.5676 181.872 60.9547 184.213 60.9547C186.553 60.9547 187.767 59.5676 187.767 57.1403V55.1249H185.513ZM174.46 49.0996C174.46 48.016 174.937 47.6041 175.695 47.6041C176.454 47.6041 176.93 48.016 176.93 49.0996V57.2919C176.93 58.3755 176.454 58.7874 175.695 58.7874C174.937 58.7874 174.46 58.3755 174.46 57.2919V49.0996ZM172.076 57.1403C172.076 59.5676 173.355 60.9547 175.695 60.9547C178.036 60.9547 179.315 59.5676 179.315 57.1403V49.2516C179.315 46.8243 178.036 45.4372 175.695 45.4372C173.355 45.4372 172.076 46.8243 172.076 49.2516V57.1403ZM163.84 45.6104H160.524V60.7814H162.605V50.0531L164.382 60.7814H166.636L168.283 49.9016V60.7814H170.537V45.6104H167.221L165.596 56.3815L163.84 45.6104ZM155.735 53.8244L156.71 50.0967V60.7814H158.855V45.6104H156.233L154.283 51.8739L153.416 55.2112V45.6104H151.292V60.7814H153.741L155.735 53.8244ZM145.072 45.6104H142.709V51.7437L139.892 45.6104H137.508L140.456 51.8304L137.508 60.7814H139.957L142.124 54.0412L142.709 55.2112V60.7814H145.072V55.2112L145.657 54.0626L147.824 60.7814H150.273L147.347 51.7655L150.273 45.6104H147.889L145.072 51.7437V45.6104ZM133.39 53.8244L134.365 50.0967V60.7814H136.511V45.6104H133.889L131.938 51.8739L131.071 55.2112V45.6104H128.947V60.7814H131.396L133.39 53.8244ZM123.746 45.6104H120.148V60.7814H123.897C126.282 60.7814 127.517 59.5241 127.517 57.1839V55.9483C127.517 54.3443 127.018 53.1958 125.74 52.6972C126.802 52.1987 127.279 51.2021 127.279 49.6413V49.0996C127.279 46.759 126.216 45.6104 123.746 45.6104ZM123.594 53.9542C124.678 53.9542 125.133 54.3878 125.133 55.7963V57.1186C125.133 58.2454 124.699 58.6141 123.897 58.6141H122.532V53.9542H123.594ZM123.681 47.7778C124.526 47.7778 124.894 48.2545 124.894 49.3382V50.1833C124.894 51.3972 124.352 51.7868 123.464 51.7868H122.532V47.7778H123.681ZM118.826 62.8186V58.6572H117.786V45.6104H111.111L110.569 56.6849C110.525 57.5739 110.395 58.1373 109.984 58.6572H109.052V62.8186H111.371V60.7814H116.464V62.8186H118.826ZM113.343 47.7778H115.359V58.6572H112.237C112.628 58.2889 112.844 57.7904 112.91 56.6418L113.343 47.7778ZM103.98 47.7778H108.098V45.6104H101.596V60.7814H108.098V58.6141H103.98V54.171H107.253V52.0041H103.98V47.7778ZM94.7262 54.2794H97.4352V60.7814H99.8625V45.6104H97.4352V52.1121H94.7262V45.6104H92.3421V60.7814H94.7262V54.2794ZM190.194 38.6752C190.325 38.2851 190.411 38.0465 190.411 36.8113V34.4272C190.411 33.0187 190.888 32.4984 191.972 32.4984H192.795V38.6752H195.179V23.5042H191.582C189.111 23.5042 188.049 24.6532 188.049 26.9934V28.1855C188.049 29.7459 188.547 30.7647 189.609 31.2632C188.417 31.7617 188.027 32.9103 188.027 34.4925V36.8331C188.027 37.5698 188.006 38.1118 187.767 38.6752H190.194ZM192.795 25.6716V30.3311H191.863C190.975 30.3311 190.433 29.941 190.433 28.7275V27.232C190.433 26.1483 190.801 25.6716 191.646 25.6716H192.795ZM184.668 23.5042H181.178L178.751 38.6752H180.94L181.352 35.9227H184.278L184.69 38.6752H187.095L184.668 23.5042ZM182.804 26.1919L183.953 33.8638H181.656L182.804 26.1919ZM175.847 38.6752H178.296L174.98 30.2662L178.296 23.5042H175.912L172.791 30.1147V23.5042H170.407V38.6752H172.791V34.0153L173.528 32.6286L175.847 38.6752ZM166.701 33.0187V35.1856C166.701 36.2697 166.224 36.6598 165.466 36.6598C164.707 36.6598 164.231 36.2697 164.231 35.1856V26.9934C164.231 25.9101 164.707 25.4983 165.466 25.4983C166.224 25.4983 166.701 25.9101 166.701 26.9934V28.6191H168.955V27.1454C168.955 24.7181 167.742 23.3309 165.401 23.3309C163.06 23.3309 161.846 24.7181 161.846 27.1454V35.0341C161.846 37.4614 163.06 38.8485 165.401 38.8485C167.742 38.8485 168.955 37.4614 168.955 35.0341V33.0187H166.701ZM156.45 25.6716H160.568V23.5042H154.066V38.6752H160.568V36.5079H156.45V32.0652H159.723V29.8978H156.45V25.6716ZM149.927 23.5042V29.6593C149.927 30.6781 149.45 31.2197 148.691 31.2197C147.932 31.2197 147.304 30.7429 147.304 29.7241V23.5042H144.92V29.9196C144.92 31.9999 145.939 33.4088 147.889 33.4088C148.539 33.4088 149.406 33.1271 149.927 32.5633V38.6752H152.31V23.5042H149.927ZM138.202 32.1732H140.911V38.6752H143.338V23.5042H140.911V30.0058H138.202V23.5042H135.817V38.6752H138.202V32.1732ZM130.226 25.6716H134.344V23.5042H127.842V38.6752H134.344V36.5079H130.226V32.0652H133.499V29.8978H130.226V25.6716ZM126.52 40.7124V36.5514H125.48V23.5042H118.804L118.263 34.5791C118.219 35.4677 118.089 36.0311 117.678 36.5514H116.746V40.7124H119.065V38.6752H124.158V40.7124H126.52ZM121.037 25.6716H123.052V36.5514H119.932C120.322 36.1826 120.538 35.6845 120.603 34.5356L121.037 25.6716ZM116.269 23.5042H113.776L112.693 28.7058L112.129 32.2385L111.392 28.684L110.092 23.5042H107.73L111.024 35.2074L111.003 35.3375C110.807 36.443 110.114 36.6598 108.9 36.5728V38.697C112.216 38.9134 113.148 37.5484 113.712 34.8177L116.269 23.5042ZM100.014 25.6716H102.507V38.6752H104.891V25.6716H107.383V23.5042H100.014V25.6716ZM97.002 33.0187V35.1856C97.002 36.2697 96.5248 36.6598 95.7664 36.6598C95.0079 36.6598 94.5312 36.2697 94.5312 35.1856V26.9934C94.5312 25.9101 95.0079 25.4983 95.7664 25.4983C96.5248 25.4983 97.002 25.9101 97.002 26.9934V28.6191H99.256V27.1454C99.256 24.7181 98.0421 23.3309 95.7015 23.3309C93.3609 23.3309 92.147 24.7181 92.147 27.1454V35.0341C92.147 37.4614 93.3609 38.8485 95.7015 38.8485C98.0421 38.8485 99.256 37.4614 99.256 35.0341V33.0187H97.002Z" fill="url(#paint0_linear)" fill-opacity="0.95"/>
<defs>
<linearGradient id="paint0_linear" x1="-2.01138" y1="16.357" x2="82.9739" y2="31.4683" gradientUnits="userSpaceOnUse">
<stop offset="0.0989583" stop-color="#284695"/>
<stop offset="0.359375" stop-color="#176DB7"/>
<stop offset="0.664965" stop-color="#00A0E3"/>
<stop offset="1" stop-color="#83CFF4"/>
</linearGradient>
</defs>
</svg>
