<svg width="26" height="18" viewBox="0 0 26 18" fill="none" xmlns="http://www.w3.org/2000/svg">
<path fill-rule="evenodd" clip-rule="evenodd" d="M13.7053 17.3152C14.5597 17.3152 14.5597 15.9291 14.5597 15.3913C14.5597 14.4294 15.414 13.4674 16.2684 13.4674C17.1228 13.4674 18.5881 15.1172 19.686 16.3533C20.5403 17.3152 20.5403 17.3152 21.3947 17.3152C22.2491 17.3152 23.9579 17.3152 23.9579 17.3152C23.9579 17.3152 25.6666 17.2421 25.6666 15.3913C25.6666 14.7901 25.0814 13.7704 23.1035 11.5435C21.3947 9.61958 20.5181 10.6133 23.1035 6.73371C24.6781 4.37114 25.8238 2.23078 25.6273 1.6132C25.4394 1.02352 21.0598 0.0846523 20.5403 0.961958C18.8316 3.84783 18.518 4.55487 17.9772 5.77175C17.1228 7.69566 17.0382 8.65762 16.2684 8.65762C15.4918 8.65762 15.414 6.79046 15.414 5.77175C15.414 2.59151 15.8233 0.342457 14.5597 0C14.5597 0 12.8509 0 11.9965 0C10.621 0 9.43337 0.961958 9.43337 0.961958C9.43337 0.961958 8.37308 1.89313 8.57898 1.92392C8.83359 1.96239 10.2877 1.52567 10.2877 2.88587C10.2877 3.84783 10.2877 4.80979 10.2877 4.80979C10.2877 4.80979 10.2954 8.65762 9.43337 8.65762C8.57898 8.65762 6.87022 4.80979 5.16145 1.92392C4.49076 0.791691 4.30707 0.961958 3.45269 0.961958C2.53679 0.961958 1.74478 1.00236 0.889543 1.00236C0.0351611 1.00236 -0.0741998 1.61513 0.0351611 1.92392C1.74393 6.73371 2.97167 9.75425 6.21833 13.5598C9.19585 17.0507 11.1848 17.2364 12.8509 17.3152C13.2781 17.3354 12.8509 17.3152 13.7053 17.3152Z" fill="white" fill-opacity="0.75"/>
</svg>
