<svg width="22" height="21" viewBox="0 0 22 21" fill="none" xmlns="http://www.w3.org/2000/svg">
<path d="M11.1663 5.47852C8.42 5.47852 6.14453 7.71465 6.14453 10.5C6.14453 13.2854 8.38077 15.5215 11.1663 15.5215C13.9518 15.5215 16.188 13.2461 16.188 10.5C16.188 7.75388 13.9125 5.47852 11.1663 5.47852ZM11.1663 13.7169C9.40081 13.7169 7.94922 12.2654 7.94922 10.5C7.94922 8.73464 9.40081 7.28312 11.1663 7.28312C12.9317 7.28312 14.3833 8.73464 14.3833 10.5C14.3833 12.2654 12.9317 13.7169 11.1663 13.7169Z" fill="white" fill-opacity="0.75"/>
<path d="M16.642 6.39181C17.3984 6.39181 18.0116 5.77856 18.0116 5.02208C18.0116 4.26559 17.3984 3.65234 16.642 3.65234C15.8856 3.65234 15.2725 4.26559 15.2725 5.02208C15.2725 5.77856 15.8856 6.39181 16.642 6.39181Z" fill="white" fill-opacity="0.75"/>
<path d="M19.973 1.73589C18.8721 0.592742 17.3056 0 15.5274 0H6.80562C3.12215 0 0.666504 2.45564 0.666504 6.13911V14.8185C0.666504 16.6391 1.25925 18.2056 2.44473 19.3488C3.58787 20.4496 5.11207 21 6.84796 21H15.4851C17.3056 21 18.8298 20.4073 19.9306 19.3488C21.0738 18.248 21.6665 16.6815 21.6665 14.8609V6.13911C21.6665 4.36089 21.0738 2.83669 19.973 1.73589ZM19.8036 14.8609C19.8036 16.1734 19.3379 17.2319 18.5758 17.9516C17.8137 18.6714 16.7552 19.0524 15.4851 19.0524H6.84796C5.57779 19.0524 4.51933 18.6714 3.75723 17.9516C2.99513 17.1895 2.61408 16.131 2.61408 14.8185V6.13911C2.61408 4.86895 2.99513 3.81048 3.75723 3.04839C4.47699 2.32863 5.57779 1.94758 6.84796 1.94758H15.5697C16.8399 1.94758 17.8984 2.32863 18.6605 3.09073C19.3802 3.85282 19.8036 4.91129 19.8036 6.13911V14.8609Z" fill="white" fill-opacity="0.75"/>
</svg>
